HIERARCHY
ROOT ui
{
	 OFFSET 0 0 0
	 CHANNELS 3 XPosition YPosition Z Position
	 EndSite
	 {
	 OFFSET 0 -1 0
	 }
}
ROOT li
{
	 OFFSET 0 0 0
	 CHANNELS 3 XPosition YPosition Z Position
	 EndSite
	 {
	 OFFSET 0 -1 0
	 }
}
ROOT ul
{
	 OFFSET 0 0 0
	 CHANNELS 3 XPosition YPosition Z Position
	 EndSite
	 {
	 OFFSET 0 -1 0
	 }
}
ROOT ll
{
	 OFFSET 0 0 0
	 CHANNELS 3 XPosition YPosition Z Position
	 EndSite
	 {
	 OFFSET 0 -1 0
	 }
}
ROOT tt
{
	 OFFSET 0 0 0
	 CHANNELS 3 XPosition YPosition Z Position
	 EndSite
	 {
	 OFFSET 0 -1 0
	 }
}
ROOT tb
{
	 OFFSET 0 0 0
	 CHANNELS 3 XPosition YPosition Z Position
	 EndSite
	 {
	 OFFSET 0 -1 0
	 }
}
ROOT td
{
	 OFFSET 0 0 0
	 CHANNELS 3 XPosition YPosition Z Position
	 EndSite
	 {
	 OFFSET 0 -1 0
	 }
}
ROOT v
{
	 OFFSET 0 0 0
	 CHANNELS 3 XPosition YPosition Z Position
	 EndSite
	 {
	 OFFSET 0 -1 0
	 }
}
ROOT bn
{
	 OFFSET 0 0 0
	 CHANNELS 3 XPosition YPosition Z Position
	 EndSite
	 {
	 OFFSET 0 -1 0
	 }
}
MOTION
Frames: 10
Frame Time: 0.002
-0.0018671549558639527	3.54980006814003E-5	0		0.4256313781738281	-2.35451220703125	0		-1.207474853515625	-0.04084474563598633	0		-0.8041697387695312	-2.570102783203125	0		1.3585042724609375	-0.77608984375	0		2.92364453125	-0.2166787567138672	0		4.49095849609375	0.03768108749389648	0		5.5489375	0.2049473419189453	0		-0.4122467956542969	5.87164501953125	0		
-0.02803129768371582	-0.0026237030029296875	0		0.42520025634765624	-2.356551025390625	0		-1.134677001953125	-0.04661518859863281	0		-0.7587692260742187	-2.583578125	0		1.325223876953125	-0.7808206176757813	0		2.945273681640625	-0.23428944396972656	0		4.490822265625	0.0361629409790039	0		5.55317529296875	0.21583151245117188	0		-0.3925958251953125	5.8784638671875	0		
-0.023167593002319336	3.261680006980896E-4	0		0.4693985595703125	-2.38416357421875	0		-1.187877685546875	-0.047792617797851565	0		-0.7901826171875	-2.578081787109375	0		1.3300081787109375	-0.7770310668945313	0		2.949404052734375	-0.20868074035644532	0		4.50181787109375	0.04850021743774414	0		5.55446435546875	0.21468678283691406	0		-0.3900738220214844	5.8784951171875	0		
-0.004436503887176513	-0.001905995011329651	0		0.48997882080078126	-2.376480224609375	0		-1.123001220703125	-0.03848247528076172	0		-0.75174267578125	-2.579482177734375	0		1.3347137451171875	-0.7742417602539062	0		2.937984130859375	-0.22087374877929689	0		4.49950439453125	0.042008590698242185	0		5.55992041015625	0.2013080291748047	0		-0.40372802734375	5.870732421875	0		
-0.019736101150512695	2.988240122795105E-4	0		0.43368426513671876	-2.35280029296875	0		-1.196326171875	-0.037394832611083985	0		-0.7544163208007812	-2.5833603515625	0		1.3742301025390624	-0.7799052124023438	0		2.933736572265625	-0.21314920043945312	0		4.4981044921875	0.03551663589477539	0		5.55396826171875	0.20042117309570312	0		-0.4023701171875	5.8717744140625	0		
-0.018161617279052734	2.8352800011634824E-4	0		0.45893267822265627	-2.3581796875	0		-1.1278665771484375	-0.04615938568115235	0		-0.758203857421875	-2.58922900390625	0		1.3726666259765625	-0.7840338745117188	0		2.94118212890625	-0.2215668487548828	0		4.50276123046875	0.04096536636352539	0		5.55507861328125	0.19935304260253905	0		-0.26588687133789063	5.891041015625	0		
-0.016695558547973634	2.6745900511741637E-4	0		0.40723825073242187	-2.351544921875	0		-1.1973330078125	-0.04012186431884766	0		-0.7570062255859376	-2.589168212890625	0		1.371011962890625	-0.7871541748046875	0		2.96280859375	-0.20815541076660157	0		4.51320458984375	0.03836179351806641	0		5.55903125	0.2103592987060547	0		-0.38295846557617186	5.88062548828125	0		
-0.015343334197998047	2.508470118045807E-4	0		0.46501223754882814	-2.378359375	0		-1.180079345703125	-0.04723714447021484	0		-0.790860595703125	-2.5856474609375	0		1.3433175048828125	-0.78491845703125	0		2.952928466796875	-0.2243114013671875	0		4.5245595703125	0.037775108337402344	0		5.5671171875	0.2091845703125	0		-0.24775787353515624	5.90087060546875	0		
-0.007013026237487793	0.007139256000518799	0		0.4421074829101562	-2.37309765625	0		-1.1907113037109376	-0.03699086761474609	0		-0.7548963623046875	-2.589064697265625	0		1.379548828125	-0.78052587890625	0		2.97433154296875	-0.21086131286621093	0		4.506828125	0.03960984420776367	0		5.5679892578125	0.20831123352050782	0		-0.37829385375976565	5.879646484375	0		
0.012015063285827637	-1.2151399999856949E-4	0		0.4652794189453125	-2.355451171875	0		-1.18365869140625	-0.041993915557861326	0		-0.7909658813476562	-2.587523681640625	0		1.3775552978515626	-0.7846160888671875	0		2.944454345703125	-0.20970353698730468	0		4.5179541015625	0.03909026336669922	0		5.5687822265625	0.2075087432861328	0		-0.25951513671875	5.892078125	0		
